<?xml version="1.0" encoding="UTF-8"?>
<svg width="15px" height="15px" viewBox="0 0 15 15" version="1.1" xmlns="http://www.w3.org/2000/svg" xmlns:xlink="http://www.w3.org/1999/xlink">
    <!-- Generator: Sketch 50.2 (55047) - http://www.bohemiancoding.com/sketch -->
    <title>Block</title>
    <desc>Created with Sketch.</desc>
    <defs></defs>
    <g id="Pages-final" stroke="none" stroke-width="1" fill="none" fill-rule="evenodd">
        <g id="01-Profile-Copy-11" transform="translate(-434.000000, -383.000000)" fill="#FF3939" fill-rule="nonzero">
            <g id="if_star_216411" transform="translate(434.000000, 355.000000)">
                <g id="if_Block_381636" transform="translate(0.000000, 28.000000)">
                    <path d="M12.7834246,2.18652038 C9.87490227,-0.728840125 5.089914,-0.728840125 2.18139171,2.18652038 C-0.727130571,5.10188088 -0.727130571,9.89811912 2.18139171,12.8134796 C5.089914,15.7288401 9.87490227,15.7288401 12.7834246,12.8134796 C15.7388585,9.89811912 15.7388585,5.10188088 12.7834246,2.18652038 Z M11.4698984,3.5031348 C13.4401876,5.47805643 13.6278342,8.53448276 12.0797498,10.7445141 L4.2455043,2.89184953 C6.40344019,1.34012539 9.49960907,1.52821317 11.4698984,3.5031348 Z M3.4949179,11.4968652 C1.52462862,9.52194357 1.33698202,6.4184953 2.88506646,4.25548589 L10.719312,12.1081505 C8.56137608,13.6598746 5.46520719,13.4717868 3.4949179,11.4968652 Z" id="Block"></path>
                </g>
            </g>
        </g>
    </g>
</svg>