<?xml version="1.0" encoding="UTF-8"?>
<svg width="16px" height="14px" viewBox="0 0 16 14" version="1.1" xmlns="http://www.w3.org/2000/svg" xmlns:xlink="http://www.w3.org/1999/xlink">
    <!-- Generator: Sketch 50.2 (55047) - http://www.bohemiancoding.com/sketch -->
    <title>Shape</title>
    <desc>Created with Sketch.</desc>
    <defs></defs>
    <g id="Pages-final" stroke="none" stroke-width="1" fill="none" fill-rule="evenodd">
        <g id="01-Profile-Copy-11" transform="translate(-434.000000, -355.000000)" fill="#F5C223" fill-rule="nonzero">
            <g id="if_star_216411" transform="translate(434.000000, 355.000000)">
                <path d="M5.68745894,4.50866365 C5.68745894,4.50866365 2.91742437,4.81547128 1.06956587,5.02059409 C0.903013155,5.04075573 0.755745495,5.15208307 0.700520122,5.32126556 C0.645294749,5.49044805 0.700520122,5.66664329 0.823243172,5.77797063 C2.19598815,7.03062234 4.25861199,8.90653182 4.25861199,8.90653182 C4.25685881,8.90653182 3.69233277,11.6353665 3.31715088,13.4560506 C3.28559352,13.6208502 3.34520186,13.7952922 3.48896315,13.8996068 C3.63184784,14.0039214 3.81593242,14.0056746 3.9605703,13.9241514 C5.57700819,13.0054817 7.99815866,11.6239708 7.99815866,11.6239708 C7.99815866,11.6239708 10.4201857,13.0054817 12.0339938,13.925028 C12.1812615,14.0056746 12.3653461,14.0039214 12.5082308,13.8996068 C12.6519921,13.7952922 12.7116004,13.6208502 12.6791664,13.4569272 C12.3039845,11.6353665 11.7403351,8.90653182 11.7403351,8.90653182 C11.7403351,8.90653182 13.802959,7.03062234 15.1757039,5.78060041 C15.298427,5.6657667 15.3527758,5.48957146 15.298427,5.32126556 C15.2440782,5.15295966 15.0968105,5.04163233 14.9302578,5.02234728 C13.0823993,4.81547128 10.3114882,4.50866365 10.3114882,4.50866365 C10.3114882,4.50866365 9.16315105,1.9682965 8.39788517,0.274718406 C8.32600453,0.123067779 8.17523049,0.017 7.99815866,0.017 C7.82108683,0.017 7.66943621,0.123944373 7.60106193,0.274718406 C6.83491946,1.9682965 5.68745894,4.50866365 5.68745894,4.50866365 Z" id="Shape"></path>
            </g>
        </g>
    </g>
</svg>